<?xml version="1.0" encoding="UTF-8" standalone="no"?>
<svg
   xmlns:dc="http://purl.org/dc/elements/1.1/"
   xmlns:cc="http://creativecommons.org/ns#"
   xmlns:rdf="http://www.w3.org/1999/02/22-rdf-syntax-ns#"
   xmlns:svg="http://www.w3.org/2000/svg"
   xmlns="http://www.w3.org/2000/svg"
   xmlns:sodipodi="http://sodipodi.sourceforge.net/DTD/sodipodi-0.dtd"
   xmlns:inkscape="http://www.inkscape.org/namespaces/inkscape"
   viewBox="0 0 26.000015 32.005833"
   x="0px"
   y="0px"
   version="1.1"
   id="svg16"
   sodipodi:docname="cert.svg"
   width="26.000015"
   height="32.005833"
   inkscape:version="0.92.5 (2060ec1f9f, 2020-04-08)">
  <metadata
     id="metadata22">
    <rdf:RDF>
      <cc:Work
         rdf:about="">
        <dc:format>image/svg+xml</dc:format>
        <dc:type
           rdf:resource="http://purl.org/dc/dcmitype/StillImage" />
        <dc:title></dc:title>
      </cc:Work>
    </rdf:RDF>
  </metadata>
  <defs
     id="defs20" />
  <sodipodi:namedview
     pagecolor="#ffffff"
     bordercolor="#666666"
     borderopacity="1"
     objecttolerance="10"
     gridtolerance="10"
     guidetolerance="10"
     inkscape:pageopacity="0"
     inkscape:pageshadow="2"
     inkscape:window-width="1866"
     inkscape:window-height="1025"
     id="namedview18"
     showgrid="false"
     fit-margin-top="0"
     fit-margin-left="0"
     fit-margin-right="0"
     fit-margin-bottom="0"
     inkscape:zoom="11.8"
     inkscape:cx="12.491525"
     inkscape:cy="18.785476"
     inkscape:window-x="54"
     inkscape:window-y="27"
     inkscape:window-maximized="1"
     inkscape:current-layer="g14" />
  <g
     data-name="48-Certification"
     id="g14"
     transform="translate(-3.0000006,1.6741535e-5)">
    <g
       id="g839"
       transform="translate(-6.2711858,37.966102)">
      <path
         inkscape:connector-curvature="0"
         id="path835"
         d="m 31.271186,-9.9661017 h 1 c 1.656854,0 3,-1.3431463 3,-3.0000003 v -18 c 0.0015,-0.265803 -0.102813,-0.521281 -0.29,-0.71 l -6,-6 c -0.188719,-0.187187 -0.444197,-0.291537 -0.71,-0.29 h -16 c -1.656854,0 -2.9999996,1.343146 -2.9999996,3 v 22 c -2e-7,1.656854 1.3431456,3.0000001 2.9999996,3.0000003 h 7 z" />
      <path
         style="fill:#ffffff"
         inkscape:connector-curvature="0"
         id="path831"
         d="m 19.271186,-11.966102 h -7 c -0.552285,0 -1,-0.447715 -1,-1 v -22 c 0,-0.552285 0.447715,-1 1,-1 h 15 v 4 c 0,1.104569 0.895431,2 2,2 h 4 v 17 c 0,0.552285 -0.447715,1 -1,1 h -1 z" />
    </g>
    <path
       d="m 19,14 a 5,5 0 0 0 -5,5 5,5 0 0 0 1,3 v 0 9 a 1,1 0 0 0 1.71,0.71 L 19,29.41 21.29,31.7 A 1,1 0 0 0 23,31 v -9 0 a 5,5 0 0 0 1,-3 5,5 0 0 0 -5,-5 z"
       id="path845"
       inkscape:connector-curvature="0" />
    <path
       d="M 21,28.59 19.71,27.3 a 1,1 0 0 0 -1.41,0 L 17,28.59 v -5 a 4.93,4.93 0 0 0 4,0 z"
       id="path843"
       inkscape:connector-curvature="0"
       style="fill:#8f3935;fill-opacity:1" />
    <path
       d="m 19,22 a 3,3 0 1 1 3,-3 3,3 0 0 1 -3,3 z"
       id="path4"
       inkscape:connector-curvature="0"
       style="fill:#d4af37;fill-opacity:1" />
    <rect
       x="7"
       y="4"
       width="6"
       height="4"
       rx="1"
       ry="1"
       id="rect6" />
    <rect
       x="7"
       y="11"
       width="8"
       height="2"
       id="rect8" />
    <rect
       x="7"
       y="15"
       width="5"
       height="2"
       id="rect10" />
    <rect
       x="7"
       y="19"
       width="5"
       height="2"
       id="rect12" />
  </g>
</svg>
